<?xml version="1.0" encoding="UTF-8" standalone="no"?>
<!DOCTYPE svg PUBLIC "-//W3C//DTD SVG 20010904//EN" "http://www.w3.org/TR/2001/REC-SVG-20010904/DTD/svg10.dtd">
<svg version="1.1" id="L_1" xmlns="http://www.w3.org/2000/svg" width="100%" viewBox="0 0 338 350" fill="#cc1321" stroke="none">
  <path d="M 58.00,253.00
           C 58.00,253.00 58.00,132.00 58.00,132.00
             58.04,107.79 67.99,83.91 82.66,65.00
             85.80,60.96 93.56,51.33 97.01,48.17
             111.76,34.68 139.79,22.03 160.00,22.00
             160.00,22.00 188.00,22.00 188.00,22.00
             221.31,22.05 258.00,48.24 274.55,76.00
             282.66,89.60 289.98,108.02 290.00,124.00
             290.00,124.00 290.00,151.00 290.00,151.00
             289.97,171.59 278.38,196.28 265.54,212.00
             259.02,219.98 259.33,218.01 253.00,223.21
             241.01,233.04 234.44,238.10 220.00,244.28
             208.16,249.35 193.92,252.98 181.00,253.00
             181.00,253.00 58.00,253.00 58.00,253.00 Z
           M 67.00,244.00
           C 67.00,244.00 159.00,244.00 159.00,244.00
             159.00,244.00 175.00,243.04 175.00,243.04
             180.06,243.24 182.18,244.40 188.00,243.83
             200.91,242.56 215.78,237.25 227.00,230.85
             244.09,221.10 254.96,208.69 265.19,192.00
             278.05,171.02 280.28,153.95 280.00,130.00
             279.85,117.08 273.78,98.18 267.42,87.00
             248.00,52.86 214.31,32.29 175.00,31.04
             175.00,31.04 165.00,31.92 165.00,31.92
             140.33,33.89 123.11,42.44 104.00,57.74
             100.85,60.26 97.24,62.21 94.43,65.13
             79.00,81.10 67.03,108.65 67.00,131.00
             67.00,131.00 67.00,162.00 67.00,162.00
             67.00,162.00 67.00,244.00 67.00,244.00 Z
           M 164.00,47.00
           C 165.76,36.48 172.46,38.70 181.00,39.72
             181.00,39.72 189.00,40.29 189.00,40.29
             198.71,41.56 208.12,44.84 217.00,48.86
             246.05,62.04 264.67,89.36 270.80,120.00
             271.89,125.46 272.93,129.34 273.00,135.00
             273.00,135.00 273.00,139.00 273.00,139.00
             272.84,147.59 267.29,147.65 264.99,145.41
             263.50,143.95 260.81,136.44 259.69,134.00
             256.03,125.99 251.76,118.36 246.92,111.00
             231.99,88.28 209.32,67.94 185.00,55.75
             178.21,52.35 171.44,48.74 164.00,47.00 Z
           M 109.00,81.00
           C 109.00,81.00 109.00,71.00 109.00,71.00
             109.02,62.48 109.78,62.36 117.00,57.15
             120.05,54.96 124.29,51.98 128.00,51.27
             135.66,49.82 157.27,56.51 165.00,59.42
             205.67,74.78 235.98,105.84 252.00,146.00
             255.40,154.52 257.38,162.04 259.20,171.00
             259.90,174.44 261.27,179.64 260.59,183.00
             259.89,186.52 256.70,191.01 254.65,194.00
             252.82,196.66 249.86,201.16 246.83,202.20
             243.21,203.88 235.04,202.33 231.00,202.20
             230.99,156.48 204.90,113.72 164.00,93.27
             145.84,84.19 129.09,81.00 109.00,81.00 Z
           M 136.00,222.00
           C 148.75,205.34 146.48,183.81 128.00,172.27
             117.22,165.54 111.84,168.38 102.00,165.43
             86.08,160.66 75.69,146.60 76.02,130.00
             76.09,126.04 77.05,119.68 78.47,116.00
             89.91,86.23 127.14,90.19 151.00,100.28
             193.24,118.15 219.21,156.01 219.00,202.00
             218.98,206.72 217.79,222.19 215.15,225.61
             213.30,227.99 209.76,229.06 207.00,230.00
             194.53,234.23 194.95,232.14 183.00,228.00
             185.12,218.60 188.34,208.79 187.96,199.00
             187.03,175.13 174.95,153.25 156.00,138.90
             146.16,131.45 134.12,126.73 122.00,124.75
             117.71,124.05 111.53,122.87 108.64,127.15
             106.63,130.12 108.26,133.22 111.11,134.83
             111.11,134.83 130.00,138.75 130.00,138.75
             155.34,146.84 174.87,169.86 175.00,197.00
             175.00,197.00 175.00,205.00 175.00,205.00
             174.91,212.11 171.50,227.42 166.89,232.71
             164.13,235.88 160.65,234.69 157.00,234.08
             147.17,232.43 142.13,230.37 136.00,222.00 Z
           M 97.00,211.00
           C 94.45,206.32 93.76,204.43 94.04,199.00
             95.07,179.26 125.53,178.42 127.66,199.00
             129.72,218.84 102.41,223.99 92.00,207.00
             92.00,207.00 97.00,211.00 97.00,211.00 Z
           M 102.00,217.00
           C 102.00,217.00 103.00,217.00 103.00,217.00
             103.00,217.00 102.00,218.00 102.00,218.00
             102.00,218.00 102.00,217.00 102.00,217.00 Z
           M 53.00,285.00
           C 53.00,285.00 71.00,285.00 71.00,285.00
             71.00,285.00 71.00,290.00 71.00,290.00
             71.00,290.00 61.00,290.00 61.00,290.00
             61.00,290.00 61.00,294.00 61.00,294.00
             61.00,294.00 71.00,294.00 71.00,294.00
             71.00,294.00 71.00,299.00 71.00,299.00
             71.00,299.00 61.00,299.00 61.00,299.00
             61.00,299.00 61.00,303.00 61.00,303.00
             61.00,303.00 72.00,303.00 72.00,303.00
             72.00,303.00 72.00,308.00 72.00,308.00
             72.00,308.00 53.00,308.00 53.00,308.00
             53.00,308.00 53.00,285.00 53.00,285.00 Z
           M 84.00,302.00
           C 80.91,298.90 76.24,297.21 75.33,292.98
             73.30,283.48 86.81,284.11 89.43,286.17
             91.30,287.65 90.98,290.86 91.00,293.00
             86.95,291.49 86.30,291.02 82.00,292.00
             84.17,292.94 87.05,294.11 88.85,295.64
             90.33,296.88 91.26,298.10 91.67,300.01
             93.78,309.88 78.21,309.00 75.99,306.26
             74.82,304.81 75.02,301.79 75.00,300.00
             75.00,300.00 84.00,302.00 84.00,302.00 Z
           M 96.00,285.00
           C 99.93,285.00 110.80,284.36 113.77,286.17
             117.81,288.64 117.81,295.36 113.77,297.83
             111.37,299.30 106.81,299.00 104.00,299.00
             104.00,299.00 104.00,308.00 104.00,308.00
             104.00,308.00 96.00,308.00 96.00,308.00
             96.00,308.00 96.00,285.00 96.00,285.00 Z
           M 137.00,285.00
           C 137.00,285.00 145.00,285.00 145.00,285.00
             145.00,285.00 145.00,302.00 145.00,302.00
             145.00,302.00 156.00,302.00 156.00,302.00
             156.00,302.00 156.00,308.00 156.00,308.00
             156.00,308.00 137.00,308.00 137.00,308.00
             137.00,308.00 137.00,285.00 137.00,285.00 Z
           M 163.00,285.74
           C 167.59,284.63 174.99,284.15 178.79,287.43
             185.68,293.38 184.48,307.59 171.00,307.98
             167.14,308.10 163.27,308.19 160.13,305.57
             153.23,299.80 155.43,289.82 163.00,285.74 Z
           M 209.00,307.00
           C 203.93,307.91 194.49,309.20 190.04,306.26
             182.78,301.47 183.68,289.99 191.02,286.09
             195.25,283.97 204.36,285.17 209.00,286.09
             209.00,286.09 209.00,291.98 209.00,291.98
             205.24,291.49 200.45,289.87 197.02,291.98
             191.46,295.37 193.20,301.29 202.00,302.00
             202.00,302.00 199.00,295.00 199.00,295.00
             199.00,295.00 209.00,295.00 209.00,295.00
             209.00,295.00 209.00,307.00 209.00,307.00 Z
           M 236.00,307.00
           C 230.93,307.91 221.49,309.20 217.04,306.26
             209.78,301.47 210.68,289.99 218.02,286.09
             222.25,283.97 231.36,285.17 236.00,286.09
             236.00,286.09 236.00,291.98 236.00,291.98
             232.24,291.49 227.45,289.87 224.02,291.98
             218.46,295.37 220.20,301.29 229.00,302.00
             229.00,302.00 226.00,295.00 226.00,295.00
             226.00,295.00 236.00,295.00 236.00,295.00
             236.00,295.00 236.00,307.00 236.00,307.00 Z
           M 240.00,285.00
           C 240.00,285.00 258.00,285.00 258.00,285.00
             258.00,285.00 258.00,290.00 258.00,290.00
             258.00,290.00 248.00,290.00 248.00,290.00
             248.00,290.00 248.00,294.00 248.00,294.00
             248.00,294.00 258.00,294.00 258.00,294.00
             258.00,294.00 258.00,299.00 258.00,299.00
             258.00,299.00 248.00,299.00 248.00,299.00
             248.00,299.00 248.00,303.00 248.00,303.00
             248.00,303.00 259.00,303.00 259.00,303.00
             259.00,303.00 259.00,308.00 259.00,308.00
             259.00,308.00 240.00,308.00 240.00,308.00
             240.00,308.00 240.00,285.00 240.00,285.00 Z
           M 262.00,285.00
           C 266.64,285.00 278.22,283.85 281.26,287.43
             284.28,290.98 281.97,295.66 282.42,299.00
             282.71,301.20 285.01,305.70 286.00,308.00
             286.00,308.00 278.27,307.40 278.27,307.40
             278.27,307.40 270.00,299.00 270.00,299.00
             270.00,299.00 270.00,308.00 270.00,308.00
             270.00,308.00 262.00,308.00 262.00,308.00
             262.00,308.00 262.00,285.00 262.00,285.00 Z
           M 109.00,290.00
           C 109.00,290.00 104.00,289.00 104.00,289.00
             104.00,289.00 104.00,295.00 104.00,295.00
             104.00,295.00 109.00,294.00 109.00,294.00
             109.00,294.00 109.00,290.00 109.00,290.00 Z
           M 275.00,290.00
           C 275.00,290.00 270.00,289.00 270.00,289.00
             270.00,289.00 270.00,295.00 270.00,295.00
             270.00,295.00 275.00,294.00 275.00,294.00
             275.00,294.00 275.00,290.00 275.00,290.00 Z
           M 167.15,292.60
           C 161.37,296.64 165.79,301.87 170.89,300.67
             174.53,299.81 175.48,295.79 173.39,293.60
             171.60,291.73 169.34,292.18 167.15,292.60 Z
           M 120.00,296.00
           C 120.00,296.00 132.00,296.00 132.00,296.00
             132.00,296.00 132.00,302.00 132.00,302.00
             132.00,302.00 120.00,302.00 120.00,302.00
             120.00,302.00 120.00,296.00 120.00,296.00 Z" />
</svg>
