<?xml version="1.0" encoding="UTF-8" standalone="no"?>
<!DOCTYPE svg PUBLIC "-//W3C//DTD SVG 20010904//EN"
              "http://www.w3.org/TR/2001/REC-SVG-20010904/DTD/svg10.dtd">

<svg xmlns="http://www.w3.org/2000/svg"
     width="119.224mm" height="123.457mm"
     viewBox="0 0 338 350">
  <path id="Valik"
        fill="#cc1321" stroke="black" stroke-width="1"
        d="M 58.00,253.00
           C 58.00,253.00 58.00,132.00 58.00,132.00
             58.04,108.30 68.15,83.46 82.67,65.00
             82.67,65.00 97.02,48.17 97.02,48.17
             111.51,34.77 140.05,22.03 160.00,22.00
             160.00,22.00 188.00,22.00 188.00,22.00
             219.88,22.05 255.92,46.86 272.56,73.00
             281.62,87.23 289.92,106.93 290.00,124.00
             290.00,124.00 290.00,151.00 290.00,151.00
             289.91,170.99 278.06,196.75 265.54,212.00
             260.78,217.79 259.33,218.10 254.00,222.37
             240.98,232.80 233.84,238.68 218.00,245.00
             206.64,249.53 193.27,252.98 181.00,253.00
             181.00,253.00 58.00,253.00 58.00,253.00 Z
           M 67.00,244.00
           C 67.00,244.00 159.00,244.00 159.00,244.00
             159.00,244.00 175.00,243.04 175.00,243.04
             175.00,243.04 186.00,243.96 186.00,243.96
             196.94,243.61 215.39,237.42 225.00,232.14
             241.42,223.11 245.54,218.29 256.79,204.00
             270.25,186.90 279.97,165.07 280.00,143.00
             280.00,143.00 280.00,132.00 280.00,132.00
             279.97,114.50 272.71,94.60 263.30,80.00
             230.28,28.75 161.28,16.11 112.00,51.43
             95.56,63.21 89.72,68.18 79.58,86.00
             72.89,97.76 67.06,116.42 67.00,130.00
             67.00,130.00 67.00,144.00 67.00,144.00
             67.00,144.00 66.00,165.00 66.00,165.00
             66.00,165.00 67.00,180.00 67.00,180.00
             67.00,180.00 67.00,244.00 67.00,244.00 Z
           M 164.00,47.00
           C 165.65,37.21 171.83,38.50 180.00,39.58
             195.05,41.57 202.67,42.16 217.00,48.89
             246.06,62.54 264.63,88.99 270.80,120.00
             271.85,125.28 272.94,130.60 273.00,136.00
             273.04,139.83 273.81,145.23 268.98,146.17
             267.84,146.66 266.67,146.63 265.65,146.17
             263.56,144.62 260.90,136.63 259.69,134.00
             255.53,124.92 250.65,116.22 244.98,108.00
             230.02,86.33 208.54,67.56 185.00,55.75
             178.21,52.35 171.44,48.74 164.00,47.00 Z
           M 109.00,81.00
           C 109.00,81.00 109.00,71.00 109.00,71.00
             109.01,62.60 109.89,62.32 117.00,57.16
             120.09,54.91 124.23,52.19 128.00,51.39
             135.69,49.75 157.23,56.49 165.00,59.42
             204.32,74.27 237.21,106.54 251.95,146.00
             255.12,154.48 257.40,162.12 259.20,171.00
             259.90,174.44 261.27,179.64 260.59,183.00
             259.89,186.50 256.70,191.04 254.65,194.00
             252.48,197.15 249.72,201.03 246.00,202.20
             242.28,203.78 235.20,202.19 231.00,202.20
             231.00,151.04 199.12,105.15 151.00,87.69
             136.11,82.29 124.65,81.00 109.00,81.00 Z
           M 136.00,222.00
           C 149.28,205.66 145.98,183.60 128.00,172.13
             118.07,165.80 111.10,168.08 101.00,164.96
             85.26,160.10 75.35,145.29 76.04,129.00
             76.20,125.08 77.48,118.62 78.93,115.00
             91.12,84.54 129.18,91.60 153.00,101.20
             193.12,117.38 219.48,159.06 219.00,202.00
             218.95,206.33 217.51,222.60 215.15,225.59
             213.57,227.58 210.34,228.69 208.00,229.58
             195.18,234.43 195.18,232.22 183.00,228.00
             185.18,218.34 188.35,209.14 187.96,199.00
             187.03,175.07 174.62,151.90 155.00,138.04
             145.46,131.30 133.54,126.41 122.00,124.59
             117.71,123.91 111.51,123.01 108.62,127.15
             106.47,130.22 108.07,133.19 111.06,134.83
             111.06,134.83 128.00,138.38 128.00,138.38
             154.05,145.08 174.87,169.71 175.00,197.00
             175.00,197.00 175.00,205.00 175.00,205.00
             174.91,212.48 171.59,227.05 166.75,232.71
             164.02,235.91 160.63,234.71 157.00,234.00
             146.86,232.02 142.51,230.89 136.00,222.00 Z
           M 97.00,211.00
           C 94.80,206.67 93.75,203.97 94.10,199.00
             95.50,179.00 125.57,178.88 127.66,199.00
             129.57,217.35 106.23,223.38 94.00,210.00
             94.00,210.00 97.00,211.00 97.00,211.00 Z
           M 102.00,217.00
           C 102.00,217.00 103.00,217.00 103.00,217.00
             103.00,217.00 102.00,218.00 102.00,218.00
             102.00,218.00 102.00,217.00 102.00,217.00 Z
           M 53.00,285.00
           C 53.00,285.00 71.00,285.00 71.00,285.00
             71.00,285.00 71.00,290.00 71.00,290.00
             71.00,290.00 61.00,290.00 61.00,290.00
             61.00,290.00 61.00,294.00 61.00,294.00
             61.00,294.00 71.00,294.00 71.00,294.00
             71.00,294.00 71.00,299.00 71.00,299.00
             71.00,299.00 61.00,299.00 61.00,299.00
             61.00,299.00 61.00,303.00 61.00,303.00
             61.00,303.00 72.00,303.00 72.00,303.00
             72.00,303.00 72.00,308.00 72.00,308.00
             72.00,308.00 53.00,308.00 53.00,308.00
             53.00,308.00 53.00,285.00 53.00,285.00 Z
           M 84.00,302.00
           C 80.91,298.90 76.24,297.21 75.33,292.98
             73.30,283.48 86.81,284.11 89.43,286.17
             91.30,287.65 90.98,290.86 91.00,293.00
             86.95,291.49 86.30,291.02 82.00,292.00
             84.17,292.94 87.05,294.11 88.85,295.64
             90.33,296.88 91.26,298.10 91.67,300.01
             93.78,309.88 78.21,309.00 75.99,306.26
             74.82,304.81 75.02,301.79 75.00,300.00
             75.00,300.00 84.00,302.00 84.00,302.00 Z
           M 96.00,285.00
           C 99.93,285.00 110.80,284.36 113.77,286.17
             117.81,288.64 117.81,295.36 113.77,297.83
             111.37,299.30 106.81,299.00 104.00,299.00
             104.00,299.00 104.00,308.00 104.00,308.00
             104.00,308.00 96.00,308.00 96.00,308.00
             96.00,308.00 96.00,285.00 96.00,285.00 Z
           M 137.00,285.00
           C 137.00,285.00 145.00,285.00 145.00,285.00
             145.00,285.00 145.00,302.00 145.00,302.00
             145.00,302.00 156.00,302.00 156.00,302.00
             156.00,302.00 156.00,308.00 156.00,308.00
             156.00,308.00 137.00,308.00 137.00,308.00
             137.00,308.00 137.00,285.00 137.00,285.00 Z
           M 163.00,285.74
           C 168.11,284.50 175.66,284.20 179.61,288.28
             185.61,294.45 183.90,307.61 171.00,307.98
             167.14,308.10 163.27,308.19 160.13,305.57
             153.23,299.80 155.43,289.82 163.00,285.74 Z
           M 209.00,307.00
           C 203.93,307.91 194.49,309.20 190.04,306.26
             182.78,301.47 183.68,289.99 191.02,286.09
             195.25,283.97 204.36,285.17 209.00,286.09
             209.00,286.09 209.00,291.98 209.00,291.98
             205.24,291.49 200.45,289.87 197.02,291.98
             191.46,295.37 193.20,301.29 202.00,302.00
             202.00,302.00 199.00,295.00 199.00,295.00
             199.00,295.00 209.00,295.00 209.00,295.00
             209.00,295.00 209.00,307.00 209.00,307.00 Z
           M 236.00,307.00
           C 230.93,307.91 221.49,309.20 217.04,306.26
             209.78,301.47 210.68,289.99 218.02,286.09
             222.25,283.97 231.36,285.17 236.00,286.09
             236.00,286.09 236.00,291.98 236.00,291.98
             232.24,291.49 227.45,289.87 224.02,291.98
             218.46,295.37 220.20,301.29 229.00,302.00
             229.00,302.00 226.00,295.00 226.00,295.00
             226.00,295.00 236.00,295.00 236.00,295.00
             236.00,295.00 236.00,307.00 236.00,307.00 Z
           M 240.00,285.00
           C 240.00,285.00 258.00,285.00 258.00,285.00
             258.00,285.00 258.00,290.00 258.00,290.00
             258.00,290.00 248.00,290.00 248.00,290.00
             248.00,290.00 248.00,294.00 248.00,294.00
             248.00,294.00 258.00,294.00 258.00,294.00
             258.00,294.00 258.00,299.00 258.00,299.00
             258.00,299.00 248.00,299.00 248.00,299.00
             248.00,299.00 248.00,303.00 248.00,303.00
             248.00,303.00 259.00,303.00 259.00,303.00
             259.00,303.00 259.00,308.00 259.00,308.00
             259.00,308.00 240.00,308.00 240.00,308.00
             240.00,308.00 240.00,285.00 240.00,285.00 Z
           M 262.00,285.00
           C 266.64,285.00 278.22,283.85 281.26,287.43
             284.28,290.98 281.97,295.66 282.42,299.00
             282.71,301.20 285.01,305.70 286.00,308.00
             286.00,308.00 278.27,307.40 278.27,307.40
             278.27,307.40 270.00,299.00 270.00,299.00
             270.00,299.00 270.00,308.00 270.00,308.00
             270.00,308.00 262.00,308.00 262.00,308.00
             262.00,308.00 262.00,285.00 262.00,285.00 Z
           M 109.00,290.00
           C 109.00,290.00 104.00,289.00 104.00,289.00
             104.00,289.00 104.00,295.00 104.00,295.00
             104.00,295.00 109.00,294.00 109.00,294.00
             109.00,294.00 109.00,290.00 109.00,290.00 Z
           M 275.00,290.00
           C 275.00,290.00 270.00,289.00 270.00,289.00
             270.00,289.00 270.00,295.00 270.00,295.00
             270.00,295.00 275.00,294.00 275.00,294.00
             275.00,294.00 275.00,290.00 275.00,290.00 Z
           M 169.99,291.91
           C 160.49,293.01 164.59,302.63 170.94,300.92
             175.00,299.83 177.03,294.01 169.99,291.91 Z
           M 120.00,296.00
           C 120.00,296.00 132.00,296.00 132.00,296.00
             132.00,296.00 132.00,302.00 132.00,302.00
             132.00,302.00 120.00,302.00 120.00,302.00
             120.00,302.00 120.00,296.00 120.00,296.00 Z" />
</svg>
